<svg xmlns="http://www.w3.org/2000/svg" viewBox="0 0 500 500"><path fill="#ebebeb" d="M427.18 245.65s-8.13-.59-7.38 17.64 2.61 27.93 2.61 27.93-.24 4-3.37 3.25-9-4.73-11.92-1.79-1.95 7.72 2.05 13.23 12.32 17.9 13.07 19 1 3.17-1.19 3-17.19-5.27-19.17 2 11.68 20.76 13.14 22.27 1.55 2.45 1 3.36-5.46-1.27-9.78-2.54-9.55-2-10.34 2.3 5.22 16.8 27.76 30l10.84 5.41 10.27-6.55c21.1-15.34 25.84-28.4 24.62-32.58s-6.35-2.94-10.52-1.25-8.79 4.35-9.48 3.51-.7-1.81.61-3.45 13.55-16.46 10.85-23.47-17.08-.47-19.27-.05-2.1-1.67-1.48-2.84 7.67-14.35 11.1-20.23 4-10.64.72-13.37-8.65 1.87-11.68 3-3.68-2.89-3.68-2.89.88-9.85-.2-28.05-9.3-16.74-9.3-16.74"/><path fill="#e0e0e0" d="M427.82 262v.38c0 .25.05.64.09 1.12.07 1 .16 2.45.29 4.3.25 3.74.57 9.15.94 15.84.74 13.37 1.61 31.86 2.5 52.27s1.72 38.91 2.38 52.29c.34 6.67.62 12.08.81 15.84l.21 4.31c0 .48 0 .85.05 1.12a4 4 0 0 1 0 .38v-.38c0-.25 0-.64-.09-1.12-.07-1-.17-2.45-.29-4.3-.25-3.74-.57-9.15-.94-15.84-.74-13.37-1.61-31.86-2.5-52.28s-1.72-38.9-2.39-52.28c-.33-6.67-.61-12.08-.8-15.84-.09-1.85-.17-3.3-.21-4.31 0-.47 0-.85-.05-1.12a4 4 0 0 1 0-.38"/><path fill="#e0e0e0" d="M415.13 298.51a3.5 3.5 0 0 1 .67.56c.42.38 1 .95 1.72 1.66 1.44 1.41 3.36 3.42 5.44 5.68l5.3 5.8 1.62 1.75a4 4 0 0 1 .56.67 3.3 3.3 0 0 1-.68-.55c-.41-.38-1-.95-1.71-1.66-1.42-1.44-3.31-3.47-5.39-5.73l-5.35-5.76-1.62-1.74a3.7 3.7 0 0 1-.56-.68m16.39 15.77c-.08-.08 3.88-4.24 8.85-9.28s9.07-9.06 9.16-9-3.89 4.23-8.86 9.27-9.07 9.09-9.15 9.01m-.05 31.42a3.5 3.5 0 0 1 .76-.48l2.12-1.2c1.79-1 4.26-2.4 6.92-4s5-3.19 6.75-4.33l2-1.35a3.7 3.7 0 0 1 .77-.46 3.6 3.6 0 0 1-.68.59c-.45.35-1.11.86-1.95 1.46-1.66 1.2-4 2.81-6.69 4.45s-5.17 3-7 3.94c-.92.47-1.66.84-2.19 1.08a4 4 0 0 1-.81.3m-17.96-11a3.3 3.3 0 0 1 .75.35c.47.25 1.14.63 2 1.09 1.65.94 3.91 2.26 6.4 3.74s4.73 2.84 6.35 3.85l1.9 1.2a3.5 3.5 0 0 1 .66.49 3 3 0 0 1-.75-.35c-.47-.25-1.14-.62-2-1.09-1.65-.94-3.92-2.26-6.41-3.74s-4.73-2.84-6.34-3.84c-.81-.5-1.46-.92-1.9-1.21a3.8 3.8 0 0 1-.66-.49M410 362.43a6 6 0 0 1 .95.46l2.53 1.4c2.12 1.19 5 2.86 8.24 4.72s6.11 3.58 8.19 4.84l2.46 1.5a5.4 5.4 0 0 1 .87.61 6.4 6.4 0 0 1-1-.47l-2.52-1.39c-2.12-1.19-5-2.86-8.25-4.73s-6.1-3.57-8.18-4.83l-2.47-1.54a4.6 4.6 0 0 1-.82-.57m22.72 13.05a6.4 6.4 0 0 1 .95-.64l2.63-1.6c2.23-1.36 5.29-3.24 8.62-5.41s6.3-4.2 8.43-5.69l2.54-1.76a5.5 5.5 0 0 1 1-.61 8 8 0 0 1-.87.74c-.57.45-1.41 1.09-2.46 1.87-2.09 1.55-5 3.63-8.37 5.8s-6.43 4-8.7 5.31c-1.13.65-2.06 1.16-2.7 1.49a7 7 0 0 1-1.07.5m16.3 18.71h-30l9.79 74.11h10.42z"/><path fill="#f5f5f5" d="M420.58 403.3s0 .1.16.26a1.9 1.9 0 0 0 .72.52 3.65 3.65 0 0 0 3.17-.39c1.21-.67 2.27-2 3.89-2.56a8.58 8.58 0 0 1 5.52.11 23.7 23.7 0 0 1 5.13 2.49 37 37 0 0 0 4.18 2.24 12 12 0 0 0 3.08.89 7 7 0 0 0 .87.06h.31a15.1 15.1 0 0 1-4.12-1.24 40 40 0 0 1-4.08-2.31 23 23 0 0 0-5.23-2.57 8.8 8.8 0 0 0-5.82-.06 7.7 7.7 0 0 0-2.19 1.35 15 15 0 0 1-1.72 1.33 3.52 3.52 0 0 1-2.92.51 3 3 0 0 1-.95-.63m1.09 13.7s.24-.31.71-.8a6.75 6.75 0 0 1 2.4-1.52A10.7 10.7 0 0 1 429 414a44 44 0 0 1 5.22.72 18 18 0 0 0 5.34.22 15 15 0 0 0 4.21-1.2 13.8 13.8 0 0 0 2.53-1.51 4 4 0 0 0 .8-.72 27 27 0 0 1-3.47 1.91 15.5 15.5 0 0 1-4.12 1.07 18.3 18.3 0 0 1-5.21-.26 41 41 0 0 0-5.29-.68 10.7 10.7 0 0 0-4.31.76 6.3 6.3 0 0 0-2.41 1.71 4 4 0 0 0-.45.67c-.14.16-.18.25-.17.31m23.95 7.25a2.4 2.4 0 0 0-.83-.42 8.6 8.6 0 0 0-2.48-.54 16.2 16.2 0 0 0-3.76.22c-1.4.22-2.9.61-4.47.94a18.5 18.5 0 0 1-4.47.51 9.8 9.8 0 0 1-3.55-.77 8.4 8.4 0 0 1-2.69-2 2.6 2.6 0 0 0 .51.78 6.5 6.5 0 0 0 2 1.54 9.8 9.8 0 0 0 3.67.9 17.8 17.8 0 0 0 4.59-.48c1.59-.33 3.08-.73 4.45-1a17 17 0 0 1 3.66-.31 14 14 0 0 1 3.37.63m-21.3 10.28a5 5 0 0 1 2.92-.29 13.7 13.7 0 0 1 3 1.14 11.7 11.7 0 0 0 11.14-.58 10.4 10.4 0 0 0 1.78-1.37c.37-.39.55-.61.53-.64a25 25 0 0 1-2.49 1.71 12.3 12.3 0 0 1-7 1.48c-2.84-.16-5-1.86-7-2.08a4.4 4.4 0 0 0-2.26.19 1.6 1.6 0 0 0-.62.44m1.68 14.23a5.8 5.8 0 0 0 2.5-.5c1.5-.5 3.37-1.66 5.55-2.53a9.1 9.1 0 0 1 3.19-.66 5.86 5.86 0 0 1 2.56.58 5.55 5.55 0 0 1 1.85 1.6s0-.25-.28-.63a4 4 0 0 0-1.41-1.27 5.86 5.86 0 0 0-2.72-.73 9 9 0 0 0-3.36.66c-2.26.9-4.07 2.09-5.51 2.66s-2.37.74-2.37.82m1.47 6.62a6.8 6.8 0 0 0 1.9.61 35 35 0 0 0 9.56.94 7.4 7.4 0 0 0 2-.23c0-.15-3 0-6.75-.39s-6.68-1.08-6.71-.93"/><path fill="#e0e0e0" d="M461.66 34.26v79.7H358.72l-3.71-79.14z"/><path fill="#fff" d="M355.01 113.96V34.73h102.94v79.23z"/><path fill="#e0e0e0" d="M458.34 114.35H354.62v-80h103.72Zm-102.94-.78h102.16V35.12H355.4Z"/><path fill="#fff" d="M366.16 42.87h80.64v60.66h-80.64z"/><path fill="#e0e0e0" d="M446.8 42.87h-5.92l-16.54.13-58.18.09.19-.18v60.65l-.21-.21h80.64l-.17.17c0-18.33.07-33.48.09-44.05V42.86v16.51c0 10.59.05 25.77.09 44.15v.17h-80.81.02V42.65h.18l58.3.09h22.34Z"/><path fill="#e0e0e0" d="M355 34.54a10 10 0 0 1 1.74 1.07c1.05.7 2.48 1.7 4 2.84s2.92 2.23 3.89 3a9 9 0 0 1 1.5 1.39 11 11 0 0 1-1.68-1.16l-4-2.93-3.95-2.93a10.3 10.3 0 0 1-1.5-1.28m103 .18a57 57 0 0 1-5.5 4.28 58 58 0 0 1-5.7 3.91 58 58 0 0 1 5.45-4.24 58 58 0 0 1 5.75-3.95"/><path fill="#fff" d="m457.95 113.96-11.56-10.43"/><path fill="#e0e0e0" d="M446.39 103.53a75 75 0 0 1 5.92 5.06A76 76 0 0 1 458 114a73 73 0 0 1-6-5.1 74 74 0 0 1-5.61-5.37M355 114a72 72 0 0 1 5.38-5.13 68 68 0 0 1 5.66-4.83 72 72 0 0 1-5.38 5.13A68 68 0 0 1 355 114"/><path fill="#f5f5f5" d="M425.93 72.65a9.73 9.73 0 1 1-7.49-11.55 9.73 9.73 0 0 1 7.49 11.55"/><path fill="#e0e0e0" d="M413.25 79.87a16 16 0 0 1 .85-2.69 16.2 16.2 0 0 0 .89-6.55 9.1 9.1 0 0 0-2.85-5.74 16.6 16.6 0 0 0-2.31-1.49 4.1 4.1 0 0 1 2.65 1.08 8.9 8.9 0 0 1 3.26 6.07 14.26 14.26 0 0 1-1.14 6.81 8 8 0 0 1-1.35 2.51"/><path fill="#e0e0e0" d="M425.81 69.45c0 .22-2.62-.72-5.66.19s-4.7 3.06-4.86 2.9.22-.67 1-1.46a8.64 8.64 0 0 1 3.66-2.17 8.54 8.54 0 0 1 4.25-.15c1.06.24 1.65.6 1.61.69"/><path fill="#e0e0e0" d="M421.42 69c-.12 0-.07-.68-.42-1.64a4.37 4.37 0 0 0-6.32-2.46c-.9.46-1.32 1-1.42.92s.2-.72 1.14-1.38a4.58 4.58 0 0 1 7.11 2.77c.25 1.07-.01 1.79-.09 1.79"/><path fill="#e0e0e0" d="M418.32 70c-.22 0-.06-1.38-.45-2.94s-1.11-2.68-.93-2.82 1.25.89 1.67 2.65-.11 3.11-.29 3.11"/><path fill="#e0e0e0" d="M418.23 66.93c0 .22-.85.27-1.65.69s-1.49 1-1.64.83.27-.93 1.29-1.5 2.04-.2 2-.02"/><path fill="#f5f5f5" d="M402.66 71.49a7.39 7.39 0 1 1-10.41.9 7.39 7.39 0 0 1 10.41-.9"/><path fill="#e0e0e0" d="M403 82.56a12 12 0 0 1-1.5-1.53 12.25 12.25 0 0 0-4.07-2.93 6.88 6.88 0 0 0-4.86-.14 12.4 12.4 0 0 0-1.82 1c-.05 0 .41-.8 1.67-1.39a6.75 6.75 0 0 1 5.23 0 10.85 10.85 0 0 1 4.15 3.19 6.1 6.1 0 0 1 1.2 1.8"/><path fill="#e0e0e0" d="M400.47 70.43a11.8 11.8 0 0 0-1.89 3.86 11.6 11.6 0 0 0 .21 4.29c-.07 0-.37-.39-.63-1.18a6.58 6.58 0 0 1 1.27-6.13c.57-.63.99-.89 1.04-.84"/><path fill="#e0e0e0" d="M398.57 73.19c-.05.08-.48-.19-1.24-.3a3.33 3.33 0 0 0-3.91 3.35c0 .77.2 1.24.11 1.28s-.41-.39-.51-1.26a3.56 3.56 0 0 1 1.18-3.06 3.62 3.62 0 0 1 3.21-.71c.84.24 1.2.66 1.16.7"/><path fill="#e0e0e0" d="M398.15 75.64c-.11.13-.94-.45-2.12-.75s-2.19-.22-2.22-.38a2.75 2.75 0 0 1 2.36-.18c1.33.34 2.09 1.21 1.98 1.31"/><path fill="#e0e0e0" d="M396.08 74.61c.15.09-.12.66-.13 1.35s.14 1.35 0 1.4-.52-.52-.54-1.41.59-1.43.67-1.34"/><path fill="#ebebeb" d="M403 69c-2.61-1.7-4.21-4.73-5.25-7.67a14.42 14.42 0 0 1-.12-9.18 12 12 0 0 1 6.28 6.71c1.09 2.95.45 7.3-.91 10.14"/><path fill="#fff" d="M399.94 56.92a105 105 0 0 1 2.8 11.6"/><path fill="#e0e0e0" d="M402.74 68.52a8 8 0 0 1-.47-1.69c-.28-1.21-.61-2.58-1-4.1s-.71-2.89-1-4.09a7.5 7.5 0 0 1-.35-1.72 7.7 7.7 0 0 1 .63 1.64c.33 1 .74 2.46 1.13 4.07s.68 3.08.85 4.14a7.2 7.2 0 0 1 .21 1.75"/><path fill="#ebebeb" d="M409.58 82.2c3.05-.64 6.32.36 9.14 1.71a14.36 14.36 0 0 1 6.57 6.41 12 12 0 0 1-9.18-.31c-2.86-1.32-5.48-4.84-6.53-7.81"/><path fill="#fff" d="M420.23 88.56a106 106 0 0 1-10.18-6.22"/><path fill="#e0e0e0" d="M410.05 82.34a7.8 7.8 0 0 1 1.53.86l3.58 2.22 3.61 2.18a7.8 7.8 0 0 1 1.46 1 7.2 7.2 0 0 1-1.6-.71c-1-.49-2.27-1.22-3.68-2.08s-2.66-1.7-3.54-2.33a7.5 7.5 0 0 1-1.36-1.14"/><path fill="#ebebeb" d="M406.63 83.65a8.8 8.8 0 0 1-.49 5.53 8.62 8.62 0 0 1-3.42 4.29 7.1 7.1 0 0 1-.36-5.48 8.7 8.7 0 0 1 4.27-4.34"/><path fill="#fff" d="M403.46 90.36a63 63 0 0 1 3.11-6.42"/><path fill="#e0e0e0" d="M406.57 83.94a22 22 0 0 1-1.46 3.25 21 21 0 0 1-1.65 3.17 13 13 0 0 1 1.28-3.36 12.3 12.3 0 0 1 1.83-3.06M92.59 248.24h110.87v209.58H92.59z"/><path fill="#f5f5f5" d="M59.68 248.24h110.87v209.58H59.68z"/><path fill="#e0e0e0" d="M162.39 291.38H67.23v-33.22h95.16Zm-94-1.17h92.82v-30.88H68.4Z"/><path fill="#ebebeb" d="M97.4 258.75h36.12v1.67a4.95 4.95 0 0 1-4.95 4.95h-26.23a4.95 4.95 0 0 1-4.95-4.95v-1.67z"/><path fill="#e0e0e0" d="M162.39 333.58H67.23v-33.22h95.16Zm-94-1.17h92.82v-30.88H68.4Z"/><path fill="#ebebeb" d="M97.4 300.95h36.12v1.67a4.95 4.95 0 0 1-4.95 4.95h-26.23a4.95 4.95 0 0 1-4.95-4.95v-1.67z"/><path fill="#e0e0e0" d="M162.39 375.78H67.23v-33.22h95.16Zm-94-1.17h92.82v-30.88H68.4Z"/><path fill="#ebebeb" d="M97.4 343.15h36.12v1.67a4.95 4.95 0 0 1-4.95 4.95h-26.23a4.95 4.95 0 0 1-4.95-4.95v-1.67z"/><path fill="#e0e0e0" d="M162.39 418H67.23v-33.24h95.16Zm-94-1.17h92.82v-30.9H68.4Z"/><path fill="#ebebeb" d="M97.4 385.35h36.12V387a4.95 4.95 0 0 1-4.95 4.95h-26.22A4.95 4.95 0 0 1 97.4 387v-1.67zM54.77 240.4h120.42v10.44H54.77z"/><path fill="#e0e0e0" d="M175.19 240.4h36.21v10.44h-36.21zM59.68 457.82h5.83v10.71h-5.83zm36 0h5.83v10.71h-5.83zm65.76 0h5.83v10.71h-5.83zm32.88 0h5.83v10.71h-5.83zm-50.94-245.11 11.21 29.44-6.97-.03-5.59-18.1z"/><path fill="#ebebeb" d="m105.07 185.5-3.85 56.42 39.8.85 4.48-57.27z"/><path fill="#fafafa" d="M109.05 190.04 105.84 237l29.6 1.43 4.13-48.67z"/><path fill="#e0e0e0" d="m115.55 196.68-2.4 33.01h16.32l2.88-33.01zM58.24 28.15h83.03v137.44H58.24z"/><path fill="#ebebeb" d="M55.48 28.15h83.03v137.44H55.48z"/><path fill="#fafafa" d="M59.02 30.94h75.96V162.8H59.02z"/><path fill="#ebebeb" d="M73.48 48.07h46.71v97.59H73.48z"/><path fill="#e0e0e0" d="M73.48 111.13c-.11-9.12 8.09-18 17.12-19.29 4.3-.61 8.87.25 12.9-1.4 7.18-3 9.46-12.49 16.69-15.32l.33 70.54h-47Z"/><path fill="#f5f5f5" d="M250.72 441.25v27.66h85.08v-27.66z"/><path fill="#e0e0e0" d="M247.15 433.51v7.74h91.62v-7.74z"/><path fill="#e0e0e0" d="M292.96 468.91h42.84v-27.66h2.97v-7.74h-47.59v7.02zm-30.34-23.2h17.25v4.16h-17.25z"/><path fill="#fff" d="M260.4 455.08h22.15v8.79H260.4z"/><path fill="#f5f5f5" d="M263.81 405.88v27.67h85.08v-27.67z"/><path fill="#e0e0e0" d="M260.24 398.15v7.73h91.62v-7.73z"/><path fill="#e0e0e0" d="M306.05 433.55h42.84v-27.67h2.97v-7.73h-47.6v7.02zm-30.34-23.2h17.25v4.16h-17.25z"/><path fill="#fff" d="M273.49 419.72h22.15v8.79h-22.15z"/><path fill="#263238" d="M464.88 468.53c0 .15-97.66.26-218.1.26s-218.13-.11-218.13-.26 97.64-.27 218.13-.27 218.1.12 218.1.27"/><path fill="#fff" d="M309.16 61.17h-25a6.21 6.21 0 0 0-6.07 6.34V72a6.19 6.19 0 0 1-6.06 6.33h-48.68a6.21 6.21 0 0 1-6.04-6.33v-4.55a6.2 6.2 0 0 0-6.06-6.34h-30.64A19.64 19.64 0 0 0 161 80.74l-.06 315.2a19.64 19.64 0 0 0 19.63 19.66l128.56.07A19.65 19.65 0 0 0 328.74 396l.06-315.2a19.64 19.64 0 0 0-19.64-19.63"/><path fill="#263238" d="M309.16 61.17h.67a15 15 0 0 1 2 .15 18.4 18.4 0 0 1 7.37 2.55 18.8 18.8 0 0 1 4.48 3.63 19.2 19.2 0 0 1 3.74 5.87 20.3 20.3 0 0 1 1.48 8v9.27c0 26.18 0 64.06.06 110.87s0 102.55 0 164.44v29.45a21 21 0 0 1-.75 6 20 20 0 0 1-2.51 5.54 21.3 21.3 0 0 1-4.1 4.54 19.85 19.85 0 0 1-11.34 4.41c-4.12.12-8.22 0-12.35.05H182a20.7 20.7 0 0 1-12.8-3.53 20.14 20.14 0 0 1-7.79-10.76 21.8 21.8 0 0 1-.82-6.65V213.6c0-30.95 0-60.36.05-87.89V81.05c0-.79.07-1.6.12-2.39a23 23 0 0 1 .4-2.34 20.1 20.1 0 0 1 4.22-8.32 20 20 0 0 1 16-7.1h29.4a6.26 6.26 0 0 1 3.9 1.1 6.54 6.54 0 0 1 2.41 3.16 10.7 10.7 0 0 1 .4 3.88V71a16 16 0 0 0 .06 1.87 6.2 6.2 0 0 0 1.45 3.25 5.84 5.84 0 0 0 3 1.88 7 7 0 0 0 1.78.17h48.91a5.8 5.8 0 0 0 2.41-.85 6.23 6.23 0 0 0 2.75-4A11 11 0 0 0 278 71v-2.34a13.6 13.6 0 0 1 .1-2.3 6.9 6.9 0 0 1 .74-2.1 6.16 6.16 0 0 1 3.16-2.77 9.8 9.8 0 0 1 3.91-.42h23.25-23.26a9.65 9.65 0 0 0-3.83.42 6 6 0 0 0-3 2.7 6.6 6.6 0 0 0-.71 2.05 13 13 0 0 0-.1 2.26v2.35a11.2 11.2 0 0 1-.16 2.43 6.45 6.45 0 0 1-2.84 4.11 6 6 0 0 1-2.5.88c-.91.08-1.79 0-2.7 0h-46.27a7.3 7.3 0 0 1-1.85-.18 6.16 6.16 0 0 1-3.18-2 6.6 6.6 0 0 1-1.55-3.46 16 16 0 0 1-.07-1.92v-1.66a10.1 10.1 0 0 0-.38-3.77 6.16 6.16 0 0 0-2.28-3 5.9 5.9 0 0 0-3.67-1h-29.4a20.3 20.3 0 0 0-8.58 1.62 20 20 0 0 0-7.13 5.35 19.6 19.6 0 0 0-4 8.15c-.2.75-.26 1.53-.39 2.3s-.1 1.55-.11 2.34V394.9a21.2 21.2 0 0 0 .8 6.49 19.55 19.55 0 0 0 7.57 10.46 20.17 20.17 0 0 0 12.43 3.47h115.9c4.12 0 8.26.07 12.31-.05a19.33 19.33 0 0 0 11.05-4.28 21 21 0 0 0 4-4.42 19.3 19.3 0 0 0 2.44-5.39 20.6 20.6 0 0 0 .74-5.85v-29.5c0-61.89.06-117.62.09-164.44s.08-84.69.11-110.87v-9.27a20.2 20.2 0 0 0-1.44-7.91 19.4 19.4 0 0 0-3.69-5.84 19.58 19.58 0 0 0-11.76-6.21 16 16 0 0 0-2-.19Z"/><path fill="#263238" d="M312.93 97.23c0 .08-3.25.18-7.25.21s-7.26 0-7.26-.09 3.25-.18 7.26-.22 7.25.01 7.25.1m.07 3.71c0 .08-3.25.18-7.25.21s-7.26 0-7.26-.09 3.25-.18 7.26-.21 7.25.01 7.25.09m0 3.71c0 .09-3.25.18-7.25.22s-7.26 0-7.26-.1 3.25-.18 7.26-.21 7.25.01 7.25.09M181 109h1.14l3.1-.07-.09.09v-3.54a1.19 1.19 0 0 1 1-1h1.48a1.22 1.22 0 0 1 1 1.2v3.28l-.14-.14h3.91l-.15.15v-6.11a1.3 1.3 0 0 0-.54-.93L190 100.2l-1.65-1.63-.8-.78a1.83 1.83 0 0 0-.81-.61 1 1 0 0 0-.89.17c-.24.2-.49.49-.73.72l-1.4 1.41c-.89.92-1.81 1.76-2.47 2.55a2.77 2.77 0 0 0-.2 1.46v5.52a2.6 2.6 0 0 1 0-.47v-1.4c0-.56 0-1.38-.05-2.23v-2.17a1.6 1.6 0 0 1 .22-.82c.72-.89 1.59-1.67 2.47-2.61.45-.47.92-.94 1.4-1.43.25-.25.45-.49.75-.75a1.33 1.33 0 0 1 1.13-.22 2.05 2.05 0 0 1 .94.67l.8.79 1.66 1.62 1.71 1.68a3.4 3.4 0 0 1 .44.47 1.4 1.4 0 0 1 .2.66v6.27h-4.2v-3.35a.94.94 0 0 0-.79-1h-1.42a1 1 0 0 0-.84.76v3.58h-4.05a1.3 1.3 0 0 1-.42-.06m38.09 31 1.54-1.86a3.58 3.58 0 0 0 2.91 1.67c1.51 0 2.28-.9 2.28-2.7v-7.57h-5.21v-2.28h7.93V137c0 3.45-1.71 5.14-4.93 5.14a5.5 5.5 0 0 1-4.52-2.14m22.36-4.64v6.55H239v-1.36a4 4 0 0 1-3.51 1.51c-2.56 0-4.17-1.4-4.17-3.35s1.26-3.32 4.65-3.32h2.88v-.17c0-1.53-.92-2.43-2.78-2.43a5.55 5.55 0 0 0-3.39 1.11l-1-1.9a7.85 7.85 0 0 1 4.72-1.38c3.19 0 5.05 1.52 5.05 4.74m-2.62 3.06v-1.3h-2.7c-1.77 0-2.25.67-2.25 1.49s.79 1.55 2.13 1.55a2.85 2.85 0 0 0 2.82-1.74m16.97-2.91v6.4h-2.62v-6.06c0-2-1-2.95-2.65-2.95-1.87 0-3.12 1.13-3.12 3.36v5.65h-2.62v-11.17h2.49v1.44a4.88 4.88 0 0 1 3.85-1.56c2.68 0 4.67 1.52 4.67 4.89m13.89 1.65h-8.77a3.37 3.37 0 0 0 3.62 2.68 4 4 0 0 0 3-1.21l1.4 1.61a5.65 5.65 0 0 1-4.49 1.82c-3.75 0-6.17-2.41-6.17-5.73a5.55 5.55 0 0 1 5.77-5.71 5.45 5.45 0 0 1 5.65 5.77c.03.21.01.52-.01.77m-8.79-1.73h6.34a3 3 0 0 0-3.16-2.72 3.09 3.09 0 0 0-3.18 2.72m-28.47 17.5c0-2.11 1.11-3.37 2.65-3.37s2.65 1.26 2.65 3.37-1.12 3.37-2.65 3.37-2.65-1.3-2.65-3.37m4.6 0c0-1.77-.8-2.75-1.95-2.75s-2 1-2 2.75.79 2.75 2 2.75 1.92-.98 1.92-2.75Zm7.31 1.57H243v1.75h-.69v-1.75h-3.74v-.5l3.52-4.4h.75l-3.39 4.29h2.88v-1.54h.67v1.54h1.32Zm.66-2.77a.5.5 0 0 1 .5-.51.51.51 0 0 1 .52.51.53.53 0 0 1-.52.53.51.51 0 0 1-.5-.53m0 4a.5.5 0 0 1 .5-.51.52.52 0 1 1 0 1 .51.51 0 0 1-.5-.45Zm6.53-1.44c0 1.13-.78 2-2.41 2a3.42 3.42 0 0 1-2.37-.85l.33-.54a2.88 2.88 0 0 0 2 .77c1.12 0 1.72-.55 1.72-1.36s-.53-1.38-2.22-1.38h-1.41l.34-3.33h3.63v.61h-3l-.23 2.11h.85c2.01.01 2.77.8 2.77 1.97m5.85-.03a2.07 2.07 0 0 1-2.27 2c-1.76 0-2.72-1.22-2.72-3.31 0-2.26 1.23-3.43 3-3.43a3.13 3.13 0 0 1 1.58.35l-.28.55a2.37 2.37 0 0 0-1.29-.31c-1.43 0-2.35.92-2.35 2.72v.54a2.12 2.12 0 0 1 2-1.14 2 2 0 0 1 2.33 2.03m-.68 0c0-.87-.64-1.43-1.66-1.43a1.54 1.54 0 0 0-1.71 1.45c0 .73.61 1.42 1.75 1.42a1.45 1.45 0 0 0 1.62-1.42Z"/><circle cx="244.8" cy="330.23" r="22.44" fill="#473fc5"/><path fill="#fff" d="m235 333.92 4-.94a1.1 1.1 0 0 0 .84-1.07v-.82s-.17-1.4 1.15-1.49c.95-.06 7 0 7 0s1.58 0 1.55 1.22V332a.93.93 0 0 0 .67.89l4.34 1.32a1 1 0 0 0 1.14-.54l.55-1.34a1.9 1.9 0 0 0 .14-.77 3.75 3.75 0 0 0-.75-2c-.86-1.1-4.92-3.71-12.65-3.33-7.37.35-9 3.46-9.4 4.2a3.14 3.14 0 0 0-.13 2.07c.07.18.2.47.32.77a1.1 1.1 0 0 0 1.23.65"/><circle cx="203.69" cy="210.73" r="16.6" fill="#455a64"/><path fill="#fff" d="M203.69 214.46a3 3 0 0 1-3-3V205a3 3 0 1 1 6 0v6.52a3 3 0 0 1-3 2.94m0-11.88a2.37 2.37 0 0 0-2.36 2.37v6.52a2.37 2.37 0 0 0 4.73 0V205a2.37 2.37 0 0 0-2.37-2.42"/><path fill="#fff" d="M203.69 216.56a5.41 5.41 0 0 1-4.2-1.66c-1.91-2.11-1.6-5.42-1.59-5.56a.32.32 0 0 1 .35-.28.31.31 0 0 1 .28.34s-.29 3.18 1.43 5.08a4.8 4.8 0 0 0 3.73 1.45 5 5 0 0 0 3.79-1.45 7.78 7.78 0 0 0 1.72-5.1.32.32 0 0 1 .31-.32.33.33 0 0 1 .32.3 8.32 8.32 0 0 1-1.9 5.56 5.63 5.63 0 0 1-4.24 1.64"/><path fill="#fff" d="M203.69 221.15a.31.31 0 0 1-.31-.31v-4.59a.32.32 0 1 1 .63 0v4.59a.31.31 0 0 1-.32.31"/><circle cx="247.28" cy="210.73" r="16.6" fill="#455a64"/><circle cx="242.75" cy="210.75" r="1.93" fill="#fff"/><circle cx="247.28" cy="210.75" r="1.93" fill="#fff"/><circle cx="251.82" cy="210.75" r="1.93" fill="#fff"/><path fill="#fff" d="M244.68 206.15a1.94 1.94 0 1 1-1.93-1.94 1.94 1.94 0 0 1 1.93 1.94m4.54 0a1.94 1.94 0 1 1-1.94-1.94 1.94 1.94 0 0 1 1.94 1.94m4.53 0a1.93 1.93 0 1 1-1.93-1.94 1.93 1.93 0 0 1 1.93 1.94"/><circle cx="242.75" cy="215.32" r="1.93" fill="#fff"/><circle cx="247.28" cy="215.32" r="1.93" fill="#fff"/><circle cx="251.82" cy="215.32" r="1.93" fill="#fff"/><circle cx="290.88" cy="210.73" r="16.6" fill="#455a64"/><path fill="#fff" d="M283.08 208.56v3.93a.31.31 0 0 0 .3.31h2.17a.3.3 0 0 1 .19.06l3.38 2.64a.3.3 0 0 0 .49-.23v-9.19a.3.3 0 0 0-.48-.25l-3.27 2.36a.32.32 0 0 1-.18.06h-2.3a.31.31 0 0 0-.3.31m12.82 8.81a.38.38 0 0 1-.29-.63 8.94 8.94 0 0 0 2.67-6.48 8.78 8.78 0 0 0-2.63-5.5.38.38 0 1 1 .5-.57 9.4 9.4 0 0 1 2.89 6 9.7 9.7 0 0 1-2.86 7 .35.35 0 0 1-.28.18"/><path fill="#fff" d="M293.8 215.51a.36.36 0 0 1-.27-.12.37.37 0 0 1 0-.53 5.6 5.6 0 0 0 2-4.08 6.86 6.86 0 0 0-2-4.41.38.38 0 0 1 .52-.56 7.53 7.53 0 0 1 2.27 5 6.3 6.3 0 0 1-2.27 4.63.35.35 0 0 1-.25.07"/><path fill="#fff" d="M292 213.6a.4.4 0 0 1-.27-.11.38.38 0 0 1 0-.54c2.34-2.32.08-4.94 0-5a.38.38 0 1 1 .57-.51s2.84 3.27 0 6.1a.38.38 0 0 1-.3.06"/><circle cx="203.38" cy="263.79" r="16.6" fill="#455a64" transform="rotate(-82.95 203.392 263.793)"/><path fill="#fff" d="M203.48 269.53a.5.5 0 0 1-.51-.5v-10.48a.51.51 0 0 1 1 0V269a.5.5 0 0 1-.49.53"/><path fill="#fff" d="M208.46 264.3H198.3a.51.51 0 0 1 0-1h10.16a.51.51 0 1 1 0 1"/><circle cx="289.58" cy="263.79" r="16.6" fill="#455a64" transform="rotate(-82.95 289.598 263.788)"/><path fill="#ebebeb" d="M290.72 264a3.24 3.24 0 0 0 1.92-3 3 3 0 1 0-6.05 0 3.25 3.25 0 0 0 1.93 3c-4.65.7-4.44 5.75-4.44 5.75l11 .06s.25-5.12-4.36-5.81"/><circle cx="246.48" cy="263.79" r="16.6" fill="#455a64" transform="rotate(-82.95 246.5 263.79)"/><rect width="7.54" height="7.54" x="241.06" y="260.02" fill="#ebebeb" rx="2.09"/><path fill="#ebebeb" d="M249.28 265.13v-2.56l1.91-2a.41.41 0 0 1 .71.28v5.81a.41.41 0 0 1-.69.3Z"/><path fill="#473fc5" d="m417.82 436.15 11.71 20.9 14 13.86a2.45 2.45 0 0 1-.1 3.58 2.44 2.44 0 0 1-2.18.55c-4.93-1.16-23-5.51-23.81-7.09-.89-1.83-13.81-21.22-13.81-21.22Z"/><path fill="#fff" d="m443.45 474.49-26.81-7.93.51.87a3.72 3.72 0 0 0 2 1.62c2.21.76 8.39 2.74 22.08 6a2.45 2.45 0 0 0 2.24-.59Zm-26.51-17.08a1.48 1.48 0 0 1 1.34 1.46 1.43 1.43 0 0 1-1.44 1.34 1.58 1.58 0 0 1-1.41-1.56 1.48 1.48 0 0 1 1.65-1.22" opacity=".6"/><path fill="#263238" d="M433.42 468.26a5.28 5.28 0 0 1 3-4.52c0-.06-.36-.07-.89.15a3.9 3.9 0 0 0-2.29 3.5c-.03.61.12.89.18.87m3.1 1.9c.15 0 .41-1 1.3-2s1.9-1.3 1.86-1.45a3.44 3.44 0 0 0-3.16 3.42Zm-7.93-3.82a26 26 0 0 1 1.81-3.17 25 25 0 0 1 2.63-2.52 6.72 6.72 0 0 0-4.44 5.69m-4.09-6.05c.13.09 1-1.06 2.44-2s2.84-1.27 2.8-1.42a4.68 4.68 0 0 0-3.09 1 4.78 4.78 0 0 0-2.15 2.42m-3.59-6.05a12.5 12.5 0 0 1 2.48-2.14 11.5 11.5 0 0 1 3.14-.92c0-.07-.37-.19-1-.19a5.36 5.36 0 0 0-4.23 2.3c-.3.54-.45.92-.39.95m1.77-3.24a2.1 2.1 0 0 0-.44-.79 6.2 6.2 0 0 0-1.82-1.68 2.8 2.8 0 0 0-1.71-.54 1 1 0 0 0-.85.76 1.62 1.62 0 0 0 .23 1.12 3.46 3.46 0 0 0 4.25 1.22 4 4 0 0 0 2.33-3.83 1.45 1.45 0 0 0-.53-1 1 1 0 0 0-1.14.08 3.44 3.44 0 0 0-.94 1.5 7 7 0 0 0-.46 2.44 2.3 2.3 0 0 0 .1.9 11.7 11.7 0 0 1 .71-3.2 3.1 3.1 0 0 1 .85-1.29.53.53 0 0 1 .62-.05 1 1 0 0 1 .31.7 3.59 3.59 0 0 1-2.06 3.29 3 3 0 0 1-3.63-1 1.14 1.14 0 0 1-.18-.78.53.53 0 0 1 .46-.42 2.56 2.56 0 0 1 1.45.43 9.6 9.6 0 0 1 2.45 2.14"/><path fill="#473fc5" d="m392.7 445.34-4.7 17.13s15.81 10.59 15.24 13.84l-33.54-8 6.31-27Z"/><path fill="#fff" d="M377.92 458.53a1.42 1.42 0 0 0-1.32 1.34 1.36 1.36 0 0 0 1.32 1.32 1.48 1.48 0 0 0 1.39-1.42 1.4 1.4 0 0 0-1.52-1.22m-8.14 9.73.74-2.7 31.88 8.71s1.34 1 .92 2Z" opacity=".6"/><path fill="#263238" d="M388.53 462.43c0 .16-.88 0-1.81.37s-1.53.92-1.66.82.33-1 1.47-1.37 2.07.04 2 .18m3.17 2.3c0 .16-.77.27-1.5.83s-1.06 1.26-1.22 1.21 0-1 .87-1.68 1.89-.52 1.85-.36m.99 4.69c-.16 0-.19-.88.45-1.67s1.48-1 1.52-.82-.55.52-1.06 1.18-.74 1.33-.91 1.31m-3.51-11.01c-.1.13-.8-.28-1.74-.44s-1.73 0-1.78-.2.78-.57 1.88-.37 1.75.9 1.64 1.01"/><path d="m391.76 448.74-.85 3.05-16.44-4.1.82-3.56z" opacity=".3"/><path fill="#263238" d="M390.08 454.93a3.15 3.15 0 0 1-1.68-.41 7.6 7.6 0 0 1-1.63-1 8 8 0 0 1-.84-.74 2.1 2.1 0 0 1-.41-.52.74.74 0 0 1 .13-.89 1 1 0 0 1 .81-.2 2.2 2.2 0 0 1 .61.24 6.6 6.6 0 0 1 1 .61 6.1 6.1 0 0 1 1.3 1.38c.61.91.73 1.59.66 1.61s-.34-.57-1-1.36a6.7 6.7 0 0 0-1.3-1.2 7 7 0 0 0-.89-.53c-.33-.18-.63-.25-.76-.11s-.06.07 0 .19a1.4 1.4 0 0 0 .3.38 10 10 0 0 0 .77.72 9.7 9.7 0 0 0 1.47 1 15 15 0 0 1 1.46.83"/><path fill="#263238" d="M389.81 455.12a2.72 2.72 0 0 1-.06-1.73 5.9 5.9 0 0 1 .67-1.79 5.7 5.7 0 0 1 .68-.91 1.4 1.4 0 0 1 1.27-.59.8.8 0 0 1 .59.63 2.1 2.1 0 0 1 0 .66 3.7 3.7 0 0 1-.27 1.13 3.9 3.9 0 0 1-1.13 1.56c-.86.72-1.59.75-1.59.69s.61-.27 1.31-1a3.84 3.84 0 0 0 .91-1.45 3.4 3.4 0 0 0 .2-1c0-.37 0-.69-.17-.68s-.52.15-.72.41a5.3 5.3 0 0 0-.64.81 6.2 6.2 0 0 0-.72 1.6c-.26 1-.24 1.65-.33 1.66"/><path fill="#263238" d="M397.73 254.27a161.5 161.5 0 0 1 8.37 40.58c1.6 22.07-11.91 160.48-11.91 160.48l-26.44-4.77s5.91-48.78 8.92-72.61c3-23.46-8.92-105.57-8.92-105.57l28-18.11"/><path fill="#263238" d="M336.55 260.51s-5.61 24 6.86 50.13c7.49 15.69 62.68 147.56 62.68 147.56l22.81-11.63-55.83-175.51Z"/><path fill="#455a64" d="M408.14 381.29c-.15 0-7.18-21.14-15.72-47.32s-15.33-47.45-15.19-47.49 7.18 21.13 15.71 47.32 15.34 47.44 15.2 47.49m-2.05 76.91c-.13.05-11.25-25.87-24.83-57.9s-24.48-58.05-24.34-58.11 11.26 25.86 24.84 57.9 24.47 58.05 24.33 58.11m-30.3-175.62a22 22 0 0 1-2-1.21 33 33 0 0 0-5.07-2.38l-2.91-1.08a22 22 0 0 0-2.39-.78 11 11 0 0 0-2.29-.22 3.65 3.65 0 0 1 2.37-.15 16 16 0 0 1 2.47.69c.91.3 1.9.65 2.94 1.05a25 25 0 0 1 5.08 2.55 6.6 6.6 0 0 1 1.8 1.53m13.82-13.8a46 46 0 0 1-3.76 4.68 46 46 0 0 1-4 4.52 28 28 0 0 1 3.56-4.86 28.6 28.6 0 0 1 4.2-4.34m-41.67.53a4.5 4.5 0 0 1-.1 2.42 8 8 0 0 1-3.42 4.7 9.93 9.93 0 0 1-5.69 1.23 8.7 8.7 0 0 1-2.39-.3 15 15 0 0 1 2.39-.08 10.4 10.4 0 0 0 5.41-1.3 8.22 8.22 0 0 0 3.34-4.35 24 24 0 0 0 .46-2.32m51.36-4.22a8.06 8.06 0 0 1-5.25-4.51c.13-.08 1 1.22 2.46 2.45s2.86 1.97 2.79 2.06"/><path fill="#263238" d="M383.3 149.56a6.19 6.19 0 0 1 5 3.25 23.4 23.4 0 0 1 1.25 3.88 5 5 0 0 0 2.32 3.2c1.08.52 2.35.38 3.52.61a5.86 5.86 0 0 1 4.51 6.29 2 2 0 0 0 0 1.15 1.44 1.44 0 0 0 .57.55c1.59.95 3.73.8 5.15 2a5.17 5.17 0 0 1 1.57 3.25 10.52 10.52 0 0 1-1.3 6.81 6.3 6.3 0 0 1-1.85 2.11 7.74 7.74 0 0 1-3.76 1c-4.43.31-9.14-.68-12.46-3.63-4.39-3.9-11.39-18.65-12.16-24.47Z"/><path fill="#473fc5" d="m350.62 165.34-15.72 7.53 11.16 47.21s-6.62 19.44-8.85 30.16L335 261c22.54 15.35 45.76 13.37 64.83-6.26l-10-22.73 8.36-32.75-22.07-36.12-5.45-.28Z"/><path d="M338.64 247.42c.46-.95 9.54-8.77 10.49-9.23 13.68-6.6 22-.38 37.28.84.4 0 0 .3.4.34 1.73.15 4.38-.79 6.1-.54l.95 3c-10.28 4.1-22.2.55-32.82 3.64-3.11.91-6.07 2.38-9.27 2.91a4.27 4.27 0 0 0-2.56 1 8 8 0 0 0-.82 1.3 5.14 5.14 0 0 1-3.57 1.87 6.28 6.28 0 0 1-4.27-.6c-1.25-.85-2.55-3.2-1.91-4.53" opacity=".3"/><path fill="#ffbe9d" d="M336.94 243.57c-.8.23-.52 3 1.46 2.56a78 78 0 0 0 10.1-3.33l6.84-5.58 30.66 1.87-4.74-14.38s-31.75 3-36.23 4.83c-3.27 1.33-5.61 2.66-7.14 4.38"/><path fill="#ffbe9d" d="M337.88 233.92a9.4 9.4 0 0 0-1.16 1.66c-.44.83.79 1.94.79 1.94s-2.72.85-1.77 2 1.29 1.18 1.29 1.18-2.22 1.68-1.75 2.53 1.66.36 1.66.36"/><path fill="#eb996e" d="M336.7 243.71c-.09-.1.69-.93 2-1.44a3.5 3.5 0 0 1 2.4-.33 14 14 0 0 1-2.21.82 14 14 0 0 1-2.19.95m2.98-4.19c0 .15-.61.34-1.33.66s-1.28.65-1.38.54.37-.67 1.17-1 1.52-.34 1.54-.2m-.25-2.25c0 .06-.13.08-.27.13a4 4 0 0 1-.64.18c-.51.08-.95 0-1-.1s.36-.33.91-.43a1.9 1.9 0 0 1 .71 0c.23.02.34.16.29.22"/><path fill="#473fc5" d="M376.15 163.11s13.37.35 18.55 10.54c2.59 5.09 9.35 22.5 11.72 29.84 1.6 5 6.92 29.94.89 32.41-7.72 3.18-21.28 3.67-21.27 3.67l-5-14.5a4.57 4.57 0 0 1 2.91-5.62l4.12.88 4.74-1.43-3.23-29.25-4.53-5.65Z"/><path d="M363.51 174.75c.62 2.29 0 5.6.26 7.65a109 109 0 0 1 1 24.73 3.5 3.5 0 0 0 .07 1.34 4.1 4.1 0 0 0 .65 1.05 10.86 10.86 0 0 1 1.64 7.88 32.2 32.2 0 0 1-2.48 7.84c0-2.2.13-5.5.34-7.69 0-.44.26-.15.28-.59.11-2.64-.3-5.1-2.13-7a5.8 5.8 0 0 1-1-1.19 4 4 0 0 1-.34-1.42q-1.5-13.84-1.94-27.8a2.25 2.25 0 0 1 .33-1.51 3.8 3.8 0 0 1 1-.68c.71-.46 1.17-1.28 1.94-1.64" opacity=".3"/><path fill="#473fc5" d="M334.9 172.87s-9.53 3.85-7.51 20c1 7.93 5.72 29.34 10.75 41.67 2.37 5.8 7.87 9.85 14.1 9.13 2.72-.32 5.41.15 7.24-.92 2.79-1.63 4.07-7.22 4.68-13.27.41-4.12.32-8.42.92-11.93 1-5.74-1.63-8.48-5-9.2l-13.2-2.83-.86 7Z"/><path fill="#263238" d="M351.28 221.51s.24.28.75.67a5.2 5.2 0 0 0 2.46 1 8.14 8.14 0 0 0 3.92-.5 12.5 12.5 0 0 0 4.26-2.38 7.42 7.42 0 0 0 2.26-4.2 7.26 7.26 0 0 0-.41-3.91 10.1 10.1 0 0 0-2.07-3.07 2.6 2.6 0 0 1 .82.62 7.2 7.2 0 0 1 1.59 2.31 7.37 7.37 0 0 1 .55 4.13 7.78 7.78 0 0 1-2.41 4.52 12.5 12.5 0 0 1-4.46 2.45 8.3 8.3 0 0 1-4.15.41 5.06 5.06 0 0 1-2.52-1.23c-.46-.46-.62-.81-.59-.82"/><path fill="#263238" d="M337.37 232.52s.27.71.87 1.93a17 17 0 0 0 3.34 4.62 16.1 16.1 0 0 0 7.27 4.16 16.32 16.32 0 0 0 10.14-.57c1.71-.66 2.35-2.53 3-4.1a27.3 27.3 0 0 0 1.33-4.83 85 85 0 0 0 1-8.5c.21-2.38.38-4.33.51-5.77.06-.63.12-1.15.16-1.57a4 4 0 0 1 .09-.54 1.8 1.8 0 0 1 0 .55c0 .42 0 .94-.07 1.57-.08 1.44-.2 3.4-.33 5.78a79 79 0 0 1-.86 8.56 27 27 0 0 1-1.33 4.94 18 18 0 0 1-1.15 2.47 4.43 4.43 0 0 1-2.13 1.92 16.7 16.7 0 0 1-10.49.56 16.4 16.4 0 0 1-10.67-9.17 13 13 0 0 1-.56-1.48 1.8 1.8 0 0 1-.12-.53m5.12-9.66a14 14 0 0 1 .07-2.7c.11-1.65.3-3.94.54-6.47.13-1.26.23-2.45.38-3.56a5.7 5.7 0 0 1 1.06-2.8 3 3 0 0 1 1.71-1.08c.49-.09.75 0 .74 0s-.26 0-.69.17a3 3 0 0 0-1.46 1.11c-1 1.28-.92 3.68-1.21 6.19s-.49 4.8-.7 6.45a13.4 13.4 0 0 1-.44 2.69m-4.56-48.53a2.7 2.7 0 0 1 1.07.39 8 8 0 0 1 2.37 2 12.6 12.6 0 0 1 2.13 4.06c.55 1.65.92 3.5 1.35 5.42.84 3.86 1.57 7.35 2.08 9.89.25 1.27.44 2.29.57 3a5.3 5.3 0 0 1 .14 1.12 4.4 4.4 0 0 1-.34-1.08c-.19-.7-.44-1.71-.74-3-.6-2.52-1.39-6-2.23-9.86-.43-1.92-.78-3.77-1.29-5.38a12.9 12.9 0 0 0-2-4 9.3 9.3 0 0 0-3.11-2.56m60.32 63.87a3.2 3.2 0 0 1-.87.17l-2.48.34-8.85 1.09h-.18l-.06-.18c-.54-1.6-1.06-3.35-1.58-5.21s-1.05-3.81-1.73-5.78c-.27-.77-.55-1.53-.84-2.27l-.45-1.09a4.4 4.4 0 0 1-.39-1.17 9.2 9.2 0 0 1 0-2.35 2.72 2.72 0 0 1 1.29-1.92 4 4 0 0 1 2.09-.64 6.5 6.5 0 0 1 2 .41 10 10 0 0 0 1.73.48 7 7 0 0 0 1.63 0 13.8 13.8 0 0 0 2.79-.66 9.2 9.2 0 0 1 2.17-.42 6 6 0 0 1 1.4.09 1.8 1.8 0 0 1 .47.13 14 14 0 0 0-1.85 0 9.4 9.4 0 0 0-2.1.51 13.8 13.8 0 0 1-2.84.74 7.7 7.7 0 0 1-1.73 0 13 13 0 0 1-1.81-.47 5.9 5.9 0 0 0-1.84-.37 3.6 3.6 0 0 0-1.83.58 2.23 2.23 0 0 0-1.06 1.59 9 9 0 0 0 0 2.2 3.8 3.8 0 0 0 .36 1c.15.37.31.74.45 1.11.31.74.59 1.51.86 2.29.69 2 1.22 4 1.72 5.82s1 3.6 1.53 5.19l-.25-.15 8.87-.9 2.49-.21a5 5 0 0 1 .89.05m1.57-17.85c0-.06.41 0 .94.31a5 5 0 0 1 1.64 1.73 6.55 6.55 0 0 1 1.09 3.12c-.16.07-.66-1.33-1.54-2.84a6.7 6.7 0 0 0-1.41-1.7c-.43-.37-.75-.55-.72-.62"/><path fill="#263238" d="M389.16 220.35a5 5 0 0 1-.1-1.36 31 31 0 0 1 .23-3.7c.31-3.12 1.4-7.32 1.94-12a26.9 26.9 0 0 0-1-11.93 21.5 21.5 0 0 0-2.32-4.42s.11.07.26.24a8 8 0 0 1 .64.79 14 14 0 0 1 1.77 3.26c1.22 2.92 1.74 7.36 1.2 12.12-.26 2.38-.71 4.61-1.11 6.63s-.77 3.83-1 5.37-.34 2.79-.39 3.65a8 8 0 0 1-.12 1.35"/><path d="M390.69 192.15c.51 1.84 1 3.69 1.55 5.53a26.3 26.3 0 0 1 1.19 6 27 27 0 0 1-.46 5.12c-.3 1.94-.59 3.88-.91 5.82s.29 3.57-.87 5.24l-2 .34c.28-8.6 3.67-19.72 1.61-28.08" opacity=".3"/><path fill="#263238" d="M382.72 174.12a30 30 0 0 1 1.94 4.89 51 51 0 0 1 1.73 5 17.8 17.8 0 0 1-2.23-4.77 23.5 23.5 0 0 1-1.44-5.12"/><path d="M347.57 203.93a5.8 5.8 0 0 0-3.39 1.09 11.16 11.16 0 0 0-4.54 6.24 13.1 13.1 0 0 0 .24 7.76c.26.78.78 1.66 1.59 1.64 1 0 1.37-1.22 1.52-2.17.41-2.64.81-5.28 1.22-7.92A7.5 7.5 0 0 1 345 208a2.49 2.49 0 0 1 2.2-1.35l.29-2.82" opacity=".3"/><path fill="#fafafa" d="M345.62 192.68s-1 .22-2.6.73a41 41 0 0 0-6 2.49 76 76 0 0 0-5.69 3.18l-1.69 1a3.3 3.3 0 0 1-.64.35 3 3 0 0 1 .57-.45c.38-.28.94-.67 1.64-1.12a58 58 0 0 1 5.67-3.28 35 35 0 0 1 6.08-2.42 16 16 0 0 1 1.94-.44 2.4 2.4 0 0 1 .72-.04m1.38 5.88a3.2 3.2 0 0 1-.69.25c-.45.15-1.1.35-1.9.63a60 60 0 0 0-6.11 2.51 49 49 0 0 0-5.76 3.23c-.71.46-1.27.86-1.65 1.14a3.3 3.3 0 0 1-.61.41s.18-.2.54-.51.9-.74 1.59-1.23a40 40 0 0 1 5.75-3.32 46 46 0 0 1 6.18-2.44c.81-.25 1.47-.43 1.94-.53a3.5 3.5 0 0 1 .72-.14m52.44-13.06a10 10 0 0 1-1.47.39 31 31 0 0 0-3.49 1.09 32 32 0 0 0-3.33 1.53 11 11 0 0 1-1.35.7 5.1 5.1 0 0 1 1.24-.9 21.5 21.5 0 0 1 3.32-1.62 20.5 20.5 0 0 1 3.56-1 5.8 5.8 0 0 1 1.52-.19m3.15 7.28a17 17 0 0 1-1.68.09 17 17 0 0 0-3.93.81 53 53 0 0 0-5.22 2.32 7 7 0 0 1 1.41-.94 21.6 21.6 0 0 1 3.72-1.68 13.8 13.8 0 0 1 4-.73 8.4 8.4 0 0 1 1.24 0 1.3 1.3 0 0 1 .46.13"/><path fill="#263238" d="M379.61 115.92a9.87 9.87 0 0 1 4.95 9.31c-.23 1.41-.75 2.85-.37 4.23a10.2 10.2 0 0 0 2 3.09 9.75 9.75 0 0 1-11.08 15"/><path fill="#263238" d="M383.06 133.93c7.08-19.33-13.84-27.18-24.63-23.23-10.14 3.71-14.17 9.2-15.35 16.26s-.53 14.57 2.69 21c1.59 3.15 4.25 6.28 7.78 6.42"/><path fill="#ffbe9d" d="m354.74 171.94-5-46.54a3.53 3.53 0 0 1 2.88-3.81l18.33-6.14c5.93-1.09 10.47 6 11.31 12 .92 6.64 1.79 14.78 1.38 19.82-.83 10.13-8.41 12-8.41 12s.59 8.83 1.1 17.1a2 2 0 0 1-2.57 2Z"/><path fill="#263238" d="M380.5 134.14a1.28 1.28 0 0 1-1.12 1.39 1.21 1.21 0 0 1-1.41-1 1.26 1.26 0 0 1 1.11-1.39 1.22 1.22 0 0 1 1.42 1m-13.09.99a1.29 1.29 0 0 1-1.12 1.4 1.23 1.23 0 0 1-1.41-1 1.28 1.28 0 0 1 1.12-1.43 1.22 1.22 0 0 1 1.41 1.03m13.16-3.79c-.14.18-1.19-.43-2.56-.28s-2.31 1-2.48.81.05-.39.45-.76a3.5 3.5 0 0 1 2-.85 3.38 3.38 0 0 1 2.07.43c.42.31.59.56.52.65m-13.08 1.32c-.15.18-1.18-.47-2.56-.37s-2.34.87-2.51.71.06-.38.49-.74a3.55 3.55 0 0 1 2-.77 3.36 3.36 0 0 1 2 .5c.48.3.65.59.58.67m5.51 10.28a8.8 8.8 0 0 1 2.21-.57c.35-.07.68-.16.72-.41a1.8 1.8 0 0 0-.32-1l-1.24-2.6c-1.74-3.72-3-6.78-2.88-6.85s1.68 2.88 3.42 6.6l1.21 2.63a2.06 2.06 0 0 1 .28 1.37.86.86 0 0 1-.54.56 3 3 0 0 1-.59.13 8.8 8.8 0 0 1-2.27.14"/><path fill="#eb996e" d="M375.22 159.22a25.6 25.6 0 0 1-13.68-2.56s3.92 6.71 13.87 5Zm-2.53-12.9a2.48 2.48 0 0 0-2.3-.76 2.25 2.25 0 0 0-1.5 1 1.46 1.46 0 0 0 0 1.66 1.7 1.7 0 0 0 1.85.32 5.3 5.3 0 0 0 1.68-1.19 1.6 1.6 0 0 0 .37-.44.47.47 0 0 0 0-.51"/><path fill="#263238" d="M369 144.21c.23 0 .34 1.46 1.71 2.43s2.95.68 3 .89-.33.32-1 .39a3.77 3.77 0 0 1-2.48-.66 3.23 3.23 0 0 1-1.33-2c-.11-.67.03-1.06.1-1.05m-1.33-13.6c-.1.39-1.5.31-3.1.63s-2.89.86-3.13.54c-.11-.15.1-.53.6-.93a5.52 5.52 0 0 1 4.74-.89c.62.19.94.47.89.65m12.33-2.78c-.22.33-1.2.08-2.35.15s-2.09.37-2.34.06c-.11-.15 0-.48.42-.81a3.23 3.23 0 0 1 1.86-.66 3.27 3.27 0 0 1 1.91.49c.42.29.58.61.5.77"/><path fill="#ffbe9d" d="M352.44 138.39c-.15-.06-5.54-2-5.15 4s6.34 4.36 6.34 4.19-1.19-8.19-1.19-8.19"/><path fill="#eb996e" d="M351.65 144.46s-.1.08-.27.17a1.08 1.08 0 0 1-.78.07 2.59 2.59 0 0 1-1.35-2.24 3.6 3.6 0 0 1 .19-1.52 1.2 1.2 0 0 1 .74-.85.52.52 0 0 1 .63.24c.09.17.06.29.09.3s.13-.11.06-.36a.68.68 0 0 0-.26-.36.78.78 0 0 0-.59-.11 1.46 1.46 0 0 0-1 1 3.6 3.6 0 0 0-.25 1.69 2.71 2.71 0 0 0 1.69 2.49 1.08 1.08 0 0 0 1-.22c.1-.16.12-.29.1-.3"/><path fill="#263238" d="M372.7 112.28c3.47 1.47 5.36 8.19 4.24 11.78s-4.7 5.59-8.31 6.67a22.1 22.1 0 0 1-10.88.71c-.07 2.46-1.34 5.06-3.65 5.88-3.06 1.09-6.42-1.53-7.36-4.64s-.14-6.44.66-9.59"/><path fill="#263238" d="M347.91 136s.16.17.49.41.82.57 1.46.93a8.7 8.7 0 0 0 2.42 1 5.07 5.07 0 0 0 3.18-.29 5 5 0 0 0 2.25-2.27 6.6 6.6 0 0 0 .67-2.51 9.4 9.4 0 0 0 0-1.74 2 2 0 0 0-.13-.63c-.07 0 .07.91-.08 2.35a6.7 6.7 0 0 1-.72 2.39 4.7 4.7 0 0 1-2.11 2.09 4.8 4.8 0 0 1-3 .29 9 9 0 0 1-2.36-.85c-1.28-.69-2.04-1.17-2.07-1.17"/><path fill="#455a64" d="M346.18 121.38s.07-.33.29-.91a6.25 6.25 0 0 1 1.43-2.13 9.2 9.2 0 0 1 3.22-2 25.3 25.3 0 0 1 4.59-1.12 38 38 0 0 0 8.32-2.27c1-.41 1.84-.79 2.39-1.06l.63-.33a1 1 0 0 0 .22-.13l-.23.09-.65.29c-.57.26-1.38.61-2.41 1a42.4 42.4 0 0 1-8.31 2.2 23.5 23.5 0 0 0-4.62 1.14 9.2 9.2 0 0 0-3.26 2.11 6.1 6.1 0 0 0-1.4 2.22 7 7 0 0 0-.18.69Z"/><path fill="#455a64" d="M345 144.26s-.11-.06-.28-.2a5.2 5.2 0 0 1-.7-.74 7.6 7.6 0 0 1-1.5-3.47 9.4 9.4 0 0 1 .95-5.68 12.5 12.5 0 0 1 2-2.91 5.87 5.87 0 0 1 3.34-2l-.21.33a7.24 7.24 0 0 1 2.13-7.61 9.54 9.54 0 0 1 5-1.94c1.71-.25 3.33-.39 4.84-.75a15.16 15.16 0 0 0 7.28-3.58 10.1 10.1 0 0 0 2.83-4.67 16 16 0 0 0 .32-2 2.3 2.3 0 0 1 .05.54 7.4 7.4 0 0 1-.17 1.53 9.94 9.94 0 0 1-2.77 4.89 15.27 15.27 0 0 1-7.43 3.79c-1.54.38-3.2.53-4.87.78a9.1 9.1 0 0 0-4.72 1.83 6.75 6.75 0 0 0-2 7l.1.29h-.3a5.53 5.53 0 0 0-3.07 1.83 12.4 12.4 0 0 0-2 2.78 9.17 9.17 0 0 0-1 5.44 7.9 7.9 0 0 0 1.32 3.42c.47.77.86 1.07.86 1.1"/><path fill="#263238" d="M375.11 159.16s1.11 15.11 1.94 22.82c.29 2.62.64 5.35 2.16 7.51a8.51 8.51 0 0 0 11.5 1.83 9 9 0 0 0 2.22-11.58c-.79-1.3-2-2.78-1.29-4.14a5.7 5.7 0 0 1 1.15-1.31c2.07-2.22 1.43-5.83.09-8.56a3 3 0 0 0-1.42-1.63c-.75-.3-1.62 0-2.41-.21-1.7-.48-1.81-2.77-2.19-4.5-.57-2.52-2.56-5.21-5.13-5.59 0 0-2.5 4.13-6.62 5.36"/><path fill="#455a64" d="M392.78 173.36a12.3 12.3 0 0 0 .85-3.55 8.3 8.3 0 0 0-.72-3.82 8.5 8.5 0 0 0-3.09-3.57c-.71-.46-1.53-.75-2.23-1.29a2.7 2.7 0 0 1-.84-1 3.2 3.2 0 0 1-.26-1.22 9.6 9.6 0 0 0-.16-2.09 3.5 3.5 0 0 0-1-1.47c-.82-.77-1.59-1.34-2-1.85a2 2 0 0 1-.52-.86s.22.28.67.72 1.22.95 2.1 1.72a3.83 3.83 0 0 1 1.13 1.61 9 9 0 0 1 .22 2.19 2.36 2.36 0 0 0 .93 1.87c.61.47 1.43.76 2.2 1.26a8.64 8.64 0 0 1 3.25 3.82 8.3 8.3 0 0 1 .65 4 7.9 7.9 0 0 1-.7 2.66 2.8 2.8 0 0 1-.48.87m-6.13 19.35c0-.05.47-.34 1.22-1a9.2 9.2 0 0 0 2.26-3.63 8.36 8.36 0 0 0-.29-6.18c-1-2.2-3-4-4.9-6.17a14.6 14.6 0 0 1-2.33-3.48 7.25 7.25 0 0 1-.67-3.87c.14-1.26.51-2.37.69-3.43a8 8 0 0 0 0-2.94 8.7 8.7 0 0 0-1.8-3.87c-.66-.79-1.13-1.13-1.1-1.17s.14.06.36.23a7 7 0 0 1 .89.81 8.38 8.38 0 0 1 2.09 7c-.17 1.09-.52 2.21-.64 3.4a6.93 6.93 0 0 0 .66 3.61 14.6 14.6 0 0 0 2.26 3.35c1.84 2.09 3.91 4 4.94 6.3a8.64 8.64 0 0 1 .2 6.51 8.9 8.9 0 0 1-2.47 3.66 7 7 0 0 1-1 .7 1.4 1.4 0 0 1-.37.17"/><path fill="#ffbe9d" d="m346.69 208.24 3.84-36.72 11 4.5.89 37.43s-3.6 5.28-9.52 3a9.66 9.66 0 0 1-6.21-8.21"/><path fill="#263238" d="m349.81 139.3 20.33 18.4-3.92 13.47-1.5.42-17.74-18.68 1.33-13.19z"/><path fill="#455a64" d="m348.31 139.72 20.33 18.4-3.92 13.47-19.24-18.26z"/><path fill="#ffbe9d" d="M361.93 177.21a8 8 0 0 0 2.14-5c0-2.78-.68-9.46-.68-9.46s3.69-7.48 3.61-8.48-.24-1-1.53-.6-5.37 7.19-5.37 7.19l-1.23-5.11s3.39-5.3 3.66-6 .72-1.35-.11-1.43-7.14 5.87-7.14 5.87l.42 5.58s-.13.45-1-.35-.57-7.45-.57-7.45 2.18-3.91 2.14-4.48.4-1.18 0-2.16-1.64.13-1.64.13l-4.21 5.36-1.4-5.39s.08-1.14-1.41-1.17l.33 17.4 3.57 13.34Z"/><path fill="#eb996e" d="M362.37 213.45v-.66c0-.43-.05-1.1-.08-1.92-.05-1.71-.13-4.17-.22-7.3-.16-6.34-.39-15.38-.67-26.33v-.11l.09-.07a7.2 7.2 0 0 0 2-2.79 8.3 8.3 0 0 0 .46-3.61c-.09-2.55-.37-5.2-.69-7.92v-.13c.69-1.43 1.38-2.89 2.06-4.4.34-.75.67-1.51 1-2.29.15-.38.3-.78.42-1.17l.08-.29v-.24a2 2 0 0 0-.1-.52c0-.13-.53 0-.89.11a1.25 1.25 0 0 0-.49.24 3.5 3.5 0 0 0-.45.42 20 20 0 0 0-1.59 2c-1 1.42-2 2.93-2.9 4.46l-.33.54-.15-.62c-.39-1.61-.81-3.35-1.24-5.11v-.1l.06-.1 1.72-2.73c.65-1.07 1.37-2.18 1.91-3.23.11-.3.26-.61.34-.86s0-.19 0-.18a.37.37 0 0 0-.25 0 1.4 1.4 0 0 0-.3.14c-.12.07-.25.17-.37.25s-.5.35-.74.55c-1.93 1.54-3.74 3.2-5.51 4.84l.08-.21q.21 2.83.42 5.59a.45.45 0 0 1-.5.3 1 1 0 0 1-.36-.12 2.7 2.7 0 0 1-.5-.36 2 2 0 0 1-.52-1.14 17 17 0 0 1-.22-2.23c-.05-1.47 0-2.91 0-4.34v-.05a38 38 0 0 0 2.06-4.12 2 2 0 0 0 .05-.21v-.31c0-.09.08-.4.11-.57a2 2 0 0 0 0-1c-.11-.36-.22-.51-.5-.47a1.94 1.94 0 0 0-.84.46l-4.22 5.35-.27.35-.11-.43c-.48-1.86-.94-3.66-1.39-5.38v-.07a.9.9 0 0 0-.37-.73 1.55 1.55 0 0 0-.84-.23l.2-.2c.11 7.08.19 12.95.26 17.4.78 3.21 1.38 5.69 1.8 7.4.19.82.34 1.46.44 1.91s.13.66.13.66-.07-.21-.19-.64l-.51-1.9c-.45-1.7-1.09-4.17-1.92-7.37-.11-4.45-.24-10.32-.4-17.39V144h.21a1.9 1.9 0 0 1 1.06.3 1.3 1.3 0 0 1 .55 1.09v-.07l1.41 5.38-.38-.08 4.2-5.37a2.4 2.4 0 0 1 1.08-.57.81.81 0 0 1 .71.21 1.2 1.2 0 0 1 .31.59 2.45 2.45 0 0 1 0 1.23c0 .19-.08.37-.1.54a1 1 0 0 0 0 .25 1.3 1.3 0 0 1-.08.35 37 37 0 0 1-2.08 4.22v-.11c-.05 1.41-.07 2.84 0 4.29a14 14 0 0 0 .21 2.15 1.63 1.63 0 0 0 .36.86 2.5 2.5 0 0 0 .4.29.7.7 0 0 0 .17.06.14.14 0 0 0 0 .06h-.13v.1q-.21-2.76-.43-5.59V154l.09-.09c1.77-1.65 3.57-3.31 5.53-4.88l.77-.57a4 4 0 0 1 .41-.26 1.35 1.35 0 0 1 .56-.22.84.84 0 0 1 .62.2.68.68 0 0 1 .12.71c-.11.35-.24.61-.35.9-.6 1.2-1.28 2.22-1.95 3.32l-1.73 2.74v-.21l1.23 5.11-.48-.07c.94-1.55 1.9-3.05 2.92-4.49a22 22 0 0 1 1.65-2.09 4.5 4.5 0 0 1 .5-.47 1.8 1.8 0 0 1 .66-.32c.21-.06.42-.12.66-.17a1.4 1.4 0 0 1 .41 0 .64.64 0 0 1 .43.32 2.4 2.4 0 0 1 .15.72 3 3 0 0 1 0 .39l-.09.33c-.13.42-.28.82-.44 1.21-.31.79-.65 1.55-1 2.31-.68 1.51-1.38 3-2.08 4.4v-.14c.31 2.73.58 5.38.67 8a8.7 8.7 0 0 1-.51 3.8 7.6 7.6 0 0 1-2.19 3l.09-.18c.2 11 .37 20 .48 26.33.05 3.14.08 5.6.1 7.31v1.92c0 .46.24.59.24.59"/><path fill="#eb996e" d="M351.14 160.19a21 21 0 0 1-.58-4.76 21.5 21.5 0 0 1 0-4.8 22.7 22.7 0 0 1 .57 4.77 22.6 22.6 0 0 1 .01 4.79"/><path fill="#473fc5" d="M115.89 365a54.51 54.51 0 0 1 52-14.26 94.8 94.8 0 0 1-52.6 16.43m18.24-64.61c-2.17-15.32 3.78-32.55 15.25-43.69.38 15.18-6 32.27-15.25 43.69m-9.18 28.93a81.85 81.85 0 0 1 37.57-35.9 51.62 51.62 0 0 1-37.71 36.07m-1.76 5.42c9.26.26 18.62-.07 27.57-2.44s17.51-6.91 23.47-14a92.1 92.1 0 0 0-50.9 15.54m4.56-17.49c-4.7-17.6-12.44-29.78-26.28-39.64a36.62 36.62 0 0 0 26.28 39.64M92.23 349a26.06 26.06 0 0 1 15.83-24.13c-.77 9.09-7.91 19.6-15.83 24.13m-4.42-14.8a38.82 38.82 0 0 0-25.43-33.11c3.19 14.7 11.7 27 25.43 33.11m6.66 26.34c-3.26-4.67-8.59-7.57-14.1-9s-11.26-1.56-17-1.68A39.66 39.66 0 0 0 94 362.59m7.08 35.46a43.45 43.45 0 0 0-53 25.13c19.27-3.66 38.29-12.21 53.05-25.13m21.1-13.05c-3.2 9.47-2.59 20.9 4.53 29.06a34.76 34.76 0 0 0-4.53-29.06m12.5-5.24a35.6 35.6 0 0 0 19.66 28.88 2.2 2.2 0 0 0 1.74.29c.87-.35.94-1.54.84-2.47-1.4-12.12-10.38-23.85-22.24-26.7m8.16-1.23a29.21 29.21 0 0 0 42.65.22c-13.56-1.49-29.2-2.48-42.65-.22"/><path fill="#263238" d="M144.92 270.16a2 2 0 0 1-.12.4c-.1.28-.24.66-.41 1.15-.39 1-.94 2.5-1.64 4.39s-1.57 4.24-2.54 7c-.5 1.36-1 2.81-1.57 4.35l-1.7 4.9c-2.4 6.86-5.07 15.1-7.94 24.28s-5.8 19.33-8.72 30-5.44 21-7.61 30.35-3.93 17.85-5.24 25c-.34 1.78-.66 3.49-1 5.1s-.54 3.13-.78 4.56c-.49 2.84-.91 5.29-1.19 7.31s-.55 3.54-.71 4.63c-.09.51-.15.9-.2 1.2a2.4 2.4 0 0 1-.09.41 3 3 0 0 1 0-.42c0-.29.08-.69.14-1.21.15-1.09.35-2.65.62-4.64s.64-4.48 1.1-7.33c.23-1.43.48-2.95.74-4.57s.6-3.32.93-5.11c1.26-7.16 3.05-15.65 5.13-25s4.7-19.65 7.58-30.37 5.91-20.86 8.76-30.05 5.61-17.4 8.06-24.25l1.72-4.89 1.61-4.34c1-2.71 1.87-5 2.63-6.94s1.32-3.33 1.73-4.35c.19-.48.35-.85.46-1.13Z"/><path fill="#263238" d="m70.47 308.94.23.22.65.68c.56.6 1.39 1.5 2.41 2.7a96 96 0 0 1 8 10.64A71.4 71.4 0 0 1 90.09 341c2.23 7.11 3.62 15.19 5 23.63 2.76 16.9 6.14 32 8.59 43l2.93 13c.34 1.51.6 2.69.78 3.53.08.38.15.69.2.92a1.1 1.1 0 0 1 0 .32 1.6 1.6 0 0 1-.1-.3c-.06-.24-.14-.54-.24-.91l-.87-3.51c-.74-3.09-1.8-7.49-3.1-12.93-2.54-10.93-6-26.07-8.74-43-1.38-8.44-2.75-16.49-5-23.57a72.4 72.4 0 0 0-8.2-17.8 101 101 0 0 0-7.83-10.7c-1-1.21-1.79-2.14-2.33-2.76l-.61-.72a2 2 0 0 1-.1-.26M146.94 378a1.5 1.5 0 0 1-.48.09l-1.41.16-1 .1-1.2.18c-.86.12-1.84.25-2.91.49l-1.68.33-1.81.46c-1.25.28-2.55.74-3.93 1.16a57 57 0 0 0-8.58 3.78 48.7 48.7 0 0 0-7.7 5.35 37 37 0 0 0-3 2.83 34 34 0 0 0-2.34 2.7 29 29 0 0 0-1.73 2.38 18 18 0 0 0-1.18 1.89l-.72 1.21a2 2 0 0 1-.28.41 1.6 1.6 0 0 1 .19-.46l.63-1.26a18 18 0 0 1 1.19-2 27 27 0 0 1 1.68-2.45 32 32 0 0 1 2.32-2.76 37 37 0 0 1 3-2.9 46 46 0 0 1 7.76-5.44 54.6 54.6 0 0 1 8.68-3.78c1.4-.41 2.71-.86 4-1.13l1.82-.43 1.7-.3c1.08-.22 2.08-.32 2.94-.42l1.21-.14 1-.05 1.41-.06a2.3 2.3 0 0 1 .42.06m3.86-68.74a6 6 0 0 1-1 .94l-2.8 2.42c-2.37 2-5.67 4.8-9.33 7.84s-7 5.76-9.43 7.72l-2.9 2.29a8.4 8.4 0 0 1-1.1.79 5.6 5.6 0 0 1 1-.95l2.79-2.42c2.37-2 5.66-4.79 9.33-7.83s7-5.76 9.42-7.72l2.9-2.29a8.4 8.4 0 0 1 1.12-.79m3.34 17.93c0 .14-7.08 2.36-15.9 5s-16 4.61-16 4.47 7.07-2.36 15.9-5 15.96-4.6 16-4.47m-26.28-7.13a7 7 0 0 1-.74-1l-1.87-2.86c-1.6-2.4-3.86-5.69-6.53-9.19s-5.25-6.54-7.14-8.71c-.9-1-1.65-1.89-2.26-2.57a5 5 0 0 1-.78-1 7 7 0 0 1 .93.85c.58.56 1.39 1.4 2.38 2.46 2 2.12 4.6 5.14 7.29 8.65a113 113 0 0 1 6.41 9.31c.76 1.23 1.36 2.24 1.74 2.95a5.6 5.6 0 0 1 .57 1.11M103.14 330a25 25 0 0 1-1.67 2.74c-1.07 1.67-2.51 4-4 6.62s-2.76 5.06-3.65 6.83a22 22 0 0 1-1.51 2.81 18 18 0 0 1 1.18-3c.81-1.82 2-4.28 3.53-6.92s3-4.95 4.14-6.57a16.3 16.3 0 0 1 1.98-2.51"/><path fill="#263238" d="M94.68 361c0 .07-1.39-.6-3.62-1.6s-5.32-2.3-8.83-3.53-6.75-2.14-9.11-2.75-3.83-.93-3.82-1a5 5 0 0 1 1.06.11c.68.1 1.65.29 2.85.55a77 77 0 0 1 9.19 2.61 78 78 0 0 1 8.82 3.69c1.1.55 2 1 2.56 1.35a3.5 3.5 0 0 1 .9.57m6.66 37.11a1.5 1.5 0 0 1-.44.15l-1.28.32-4.73 1.1a152 152 0 0 0-15.47 4.08A68.8 68.8 0 0 0 65 410.53c-1.72 1.1-3.07 2.07-4 2.77a14 14 0 0 1-1.44 1.06 1.8 1.8 0 0 1 .32-.34c.22-.2.54-.51 1-.88a41 41 0 0 1 3.9-2.91 63 63 0 0 1 14.46-7 130 130 0 0 1 15.55-3.95l4.77-.93a11 11 0 0 1 1.78-.24m24.07 9.14c-.14 0-1-5-1.89-11.15s-1.52-11.2-1.38-11.23 1 5 1.89 11.16 1.53 11.2 1.38 11.22m25.07-9.1a28 28 0 0 1-2.26-2.68c-1.35-1.69-3.23-4-5.35-6.54s-4.09-4.77-5.52-6.4a23 23 0 0 1-2.25-2.69 4 4 0 0 1 .72.62c.43.42 1.05 1 1.8 1.82 1.5 1.57 3.52 3.78 5.65 6.32s4 4.9 5.24 6.64c.64.88 1.15 1.59 1.49 2.1a3.1 3.1 0 0 1 .48.81"/><path fill="#455a64" d="M84.15 421.4v12.38h3.09l11.01 34.75h24.42l10.66-34.4 4.13-.35V421.4z"/><path fill="#263238" d="M135.4 434.13c0 .14-10.78.25-24.08.25s-24.08-.11-24.08-.25 10.78-.26 24.08-.26 24.08.13 24.08.26m17.6-79.67a11 11 0 0 1-1.56.42l-4.29 1c-3.61.9-8.57 2.26-13.95 4.06s-10.15 3.73-13.57 5.2l-4 1.77a8.4 8.4 0 0 1-1.51.6 10.6 10.6 0 0 1 1.42-.79c.92-.48 2.28-1.14 4-1.92a143 143 0 0 1 13.46-5.32 140 140 0 0 1 14-3.92c1.82-.41 3.3-.7 4.33-.88a8.6 8.6 0 0 1 1.67-.22"/><path fill="#fafafa" d="M127.29 453.42c0 .14-7.56.26-16.89.26s-16.89-.12-16.89-.26 7.56-.26 16.89-.26 16.89.12 16.89.26m.95-2.87c0 .14-8 .26-17.9.26s-17.9-.12-17.9-.26 8-.26 17.9-.26 17.9.12 17.9.26"/><path fill="#fff" d="m397 140.49 6.16-10.84a29 29 0 1 1 7 7.74Z"/><path fill="#263238" d="m397 140.49 13.1-3.22-.08.21a.15.15 0 0 1 0-.19.17.17 0 0 1 .17 0 28.8 28.8 0 0 0 13.86 5.71 26 26 0 0 0 4.55.21c.78 0 1.58-.07 2.38-.14l2.42-.38a29 29 0 0 0 17.87-11.53 28.5 28.5 0 0 0 4.81-11.06 29.1 29.1 0 0 0-.35-12.71 28.14 28.14 0 0 0-6.12-11.75 28.94 28.94 0 0 0-11-7.87 29.26 29.26 0 0 0-12.82-2 28.3 28.3 0 0 0-11.79 3.5A29.2 29.2 0 0 0 400.37 106a31 31 0 0 0-1.28 9.33 28.9 28.9 0 0 0 4.2 14.29.12.12 0 0 1 0 .13zc.43-.77 2.24-4.05 6.05-10.91v.13a29 29 0 0 1-4.36-14.41 31.6 31.6 0 0 1 1.26-9.46 29.7 29.7 0 0 1 4.95-9.43 29.4 29.4 0 0 1 8.85-7.56 28.7 28.7 0 0 1 12-3.55 29.7 29.7 0 0 1 13 2 29.14 29.14 0 0 1 11.21 8 28.7 28.7 0 0 1 6.24 12 29.7 29.7 0 0 1 .34 12.94 28.8 28.8 0 0 1-4.92 11.24 29.3 29.3 0 0 1-18.18 11.66l-2.46.37c-.81.07-1.62.09-2.41.13a25.7 25.7 0 0 1-4.6-.23 29 29 0 0 1-13.95-5.9l.19-.18a.14.14 0 0 1 0 .18h-.05Z"/><path fill="#263238" d="M420.11 113.87a2.51 2.51 0 1 1-2.51-2.51 2.51 2.51 0 0 1 2.51 2.51m10.03 0a2.51 2.51 0 1 1-2.51-2.51 2.5 2.5 0 0 1 2.51 2.51m10.01-1.26a2.51 2.51 0 1 1-3.43-.91 2.51 2.51 0 0 1 3.43.91"/></svg>